<svg width="266" height="168" viewBox="0 0 266 168" fill="none" xmlns="http://www.w3.org/2000/svg">
  <g clip-path="url(#clip0_4864_74993)">
    <path
      d="M219.645 167.761L220.363 167.747C220.085 159.765 219.234 151.812 217.815 143.952C214.71 127.123 209.548 116.07 202.471 111.102L202.059 111.689C218.59 123.296 219.637 167.318 219.645 167.761Z"
      fill="#071034" />
    <path
      d="M210.672 167.588L211.39 167.574C211.375 166.779 210.926 148.041 203.549 142.861L203.137 143.449C210.216 148.419 210.669 167.397 210.672 167.588Z"
      fill="#071034" />
    <path
      d="M197.973 111.754C199.955 111.754 201.562 110.147 201.562 108.164C201.562 106.181 199.955 104.574 197.973 104.574C195.99 104.574 194.383 106.181 194.383 108.164C194.383 110.147 195.99 111.754 197.973 111.754Z"
      fill="#2575FC" />
    <path
      d="M199.75 142.625C201.732 142.625 203.34 141.018 203.34 139.035C203.34 137.052 201.732 135.445 199.75 135.445C197.767 135.445 196.16 137.052 196.16 139.035C196.16 141.018 197.767 142.625 199.75 142.625Z"
      fill="#2575FC" />
    <path
      d="M212.342 113.904C211.667 118.214 213.425 122.068 213.425 122.068C213.425 122.068 216.278 118.935 216.952 114.626C217.627 110.317 215.868 106.463 215.868 106.463C215.868 106.463 213.016 109.595 212.342 113.904Z"
      fill="#071034" />
    <path
      d="M200.612 124.371C204.737 125.786 208.839 124.727 208.839 124.727C208.839 124.727 206.251 121.372 202.126 119.957C198 118.542 193.898 119.602 193.898 119.602C193.898 119.602 196.486 122.956 200.612 124.371Z"
      fill="#071034" />
    <path
      d="M200.479 151.711C202.346 152.298 204.335 152.384 206.245 151.96C205.032 150.416 203.398 149.255 201.54 148.617C199.682 147.98 197.679 147.894 195.773 148.368C197.022 149.876 198.645 151.028 200.479 151.711Z"
      fill="#071034" />
    <path
      d="M116.701 55.7121L93.5572 43.6773C93.5572 43.6773 85.7851 35.1182 80.9041 31.2522C76.0231 27.3861 74.5206 30.2262 74.5206 30.2262L72.4688 33.646L77.4273 40.5425L90.8214 51.8847L114.754 61.2587C115.128 61.8716 115.669 62.3657 116.313 62.6836C116.957 63.0015 117.678 63.1302 118.392 63.0547C119.106 62.9792 119.784 62.7026 120.347 62.257C120.911 61.8115 121.336 61.2153 121.574 60.5377C121.812 59.8601 121.852 59.1289 121.691 58.4291C121.53 57.7292 121.174 57.0895 120.663 56.5841C120.153 56.0788 119.51 55.7286 118.809 55.5743C118.107 55.4199 117.376 55.4677 116.701 55.7121Z"
      fill="#9F616A" />
    <path
      d="M56.5015 45.3024L55.1313 36.9195L51.2622 35.9523C51.2622 35.9523 48.1916 35.0065 47.4739 41.1915C46.7562 47.3766 47.3126 58.9245 47.3126 58.9245L39.4573 83.7998C38.8039 84.1037 38.2502 84.587 37.8608 85.1934C37.4715 85.7998 37.2624 86.5043 37.2579 87.225C37.2534 87.9456 37.4538 88.6527 37.8356 89.2639C38.2174 89.875 38.765 90.3652 39.4146 90.6772C40.0642 90.9892 40.7891 91.1103 41.5048 91.0263C42.2205 90.9423 42.8977 90.6567 43.4574 90.2027C44.0171 89.7488 44.4363 89.1452 44.6663 88.4622C44.8962 87.7792 44.9274 87.045 44.7562 86.345L55.0507 62.7935L56.5015 45.3024Z"
      fill="#9F616A" />
    <path d="M88.505 162.944L93.5676 162.944L95.9763 143.416L88.5039 143.416L88.505 162.944Z" fill="#9F616A" />
    <path
      d="M87.2109 161.291L97.1815 161.291H97.1819C98.867 161.291 100.483 161.961 101.675 163.152C102.866 164.344 103.536 165.96 103.536 167.645V167.851L87.2112 167.852L87.2109 161.291Z"
      fill="#071034" />
    <path d="M33.282 162.944L38.3449 162.944L40.7533 143.416L33.2812 143.416L33.282 162.944Z" fill="#9F616A" />
    <path
      d="M31.9922 161.291L41.9627 161.291H41.9631C43.6483 161.291 45.2644 161.961 46.456 163.152C47.6476 164.344 48.317 165.96 48.3172 167.645V167.851L31.9925 167.852L31.9922 161.291Z"
      fill="#071034" />
    <path
      d="M58.2788 28.5572L49.8815 35.7257L56.773 57.5344L58.328 62.4043C58.328 62.4043 48.8331 71.1586 42.9582 95.6137C37.0833 120.069 27.4727 152.564 27.4727 152.564L47.7591 158.371L64.2634 103.051L83.6764 146.451L85.9177 159.288L103.194 154.194L99.1184 122L78.7427 66.2727L80.8593 51.5003C80.8593 51.5003 84.0377 44.1269 78.5161 36.3205L76.7841 28.9852L70.5798 27.457L58.2788 28.5572Z"
      fill="#071034" />
    <path
      d="M72.2267 24.6607H49.5232C49.0562 24.6602 48.6085 24.4744 48.2782 24.1442C47.948 23.814 47.7622 23.3662 47.7617 22.8992V13.1132C47.7617 9.63539 49.1433 6.29999 51.6025 3.84078C54.0617 1.38157 57.3971 0 60.875 0C64.3528 0 67.6882 1.38157 70.1474 3.84078C72.6066 6.29999 73.9882 9.63539 73.9882 13.1132V22.8992C73.9877 23.3662 73.8019 23.814 73.4717 24.1442C73.1415 24.4744 72.6937 24.6602 72.2267 24.6607Z"
      fill="#071034" />
    <path
      d="M72.0069 19.4296C74.5538 14.7706 72.8415 8.92901 68.1825 6.38213C63.5234 3.83526 57.6818 5.54752 55.135 10.2066C52.5881 14.8657 54.3004 20.7072 58.9594 23.2541C63.6185 25.801 69.4601 24.0887 72.0069 19.4296Z"
      fill="#9F616A" />
    <path
      d="M77.0902 14.0923H63.2076L63.0652 12.0992L62.3534 14.0923H60.2158L59.9337 10.142L58.5229 14.0923H54.3867V13.8966C54.3898 11.1464 55.4837 8.50977 57.4283 6.5651C59.373 4.62043 62.0096 3.52655 64.7598 3.52344H66.7171C69.4672 3.52654 72.1039 4.62042 74.0486 6.56509C75.9932 8.50976 77.0871 11.1464 77.0902 13.8966V14.0923Z"
      fill="#071034" />
    <path
      d="M63.0944 26.4869C62.9899 26.4868 62.8856 26.4776 62.7827 26.4594L52.6172 24.6658V7.86523H63.8074L63.5304 8.18825C59.6758 12.6837 62.5798 19.9731 64.6539 23.9181C64.8067 24.207 64.8749 24.5332 64.8505 24.8592C64.8261 25.1852 64.7102 25.4977 64.516 25.7606C64.3533 25.9855 64.1397 26.1685 63.8926 26.2948C63.6455 26.4211 63.3719 26.4869 63.0944 26.4869Z"
      fill="#071034" />
    <path
      d="M147.161 114.564L58.0704 146.063C55.8676 146.839 53.447 146.71 51.3396 145.703C49.2321 144.697 47.61 142.895 46.829 140.694L31.5245 97.4073C30.7485 95.2045 30.8779 92.7839 31.8844 90.6765C32.8909 88.569 34.6922 86.9469 36.8932 86.1659L125.984 54.6671C128.187 53.8911 130.607 54.0205 132.715 55.027C134.822 56.0335 136.444 57.8348 137.225 60.0358L152.53 103.323C153.306 105.526 153.176 107.946 152.17 110.054C151.163 112.161 149.362 113.783 147.161 114.564Z"
      fill="white" />
    <path
      d="M152.532 103.324L152.612 103.553C153.356 105.657 153.233 107.97 152.271 109.983C151.309 111.996 149.587 113.545 147.484 114.288L57.9475 145.944C55.8444 146.688 53.532 146.565 51.5191 145.604C49.5062 144.642 47.9576 142.921 47.2138 140.818L47.1328 140.589L152.532 103.324Z"
      fill="#F2F2F2" />
    <path
      d="M52.5115 96.2163C46.6061 100.102 39.0376 97.1777 36.3906 92.9182L36.8126 92.6784C41.8401 89.5447 49.3062 91.2906 52.5115 96.2163Z"
      fill="#2575FC" />
    <path
      d="M126.516 107.241C125.071 107.752 123.769 107.729 122.647 107.171C120.112 105.912 118.922 102.177 117.966 99.1752C117.688 98.3021 117.425 97.4773 117.158 96.8032L117.154 96.7929C116.689 95.4557 116.77 93.9888 117.38 92.7109C117.99 91.4331 119.079 90.4475 120.411 89.9683L132.395 85.7314C133.838 85.221 135.138 85.2443 136.259 85.8006C138.794 87.0588 139.985 90.7926 140.941 93.7929C141.22 94.6677 141.484 95.4942 141.752 96.1693C142.22 97.5078 142.141 98.9771 141.531 100.257C140.921 101.538 139.831 102.525 138.496 103.005L126.516 107.241ZM117.656 96.6114C117.93 97.3017 118.195 98.1331 118.475 99.0132C119.4 101.918 120.552 105.534 122.885 106.693C123.886 107.191 125.016 107.205 126.338 106.738L138.318 102.502C139.518 102.071 140.499 101.183 141.049 100.033C141.598 98.8817 141.671 97.5606 141.252 96.3562C140.981 95.6741 140.715 94.8391 140.433 93.955C139.507 91.0508 138.354 87.4363 136.022 86.2788C135.022 85.7823 133.893 85.7679 132.573 86.2347L120.59 90.4713C119.391 90.9027 118.411 91.7893 117.862 92.9387C117.313 94.0882 117.239 95.4078 117.656 96.6114Z"
      fill="#313038" />
    <path
      d="M50.0305 97.6167C47.9247 98.3469 45.6563 98.4715 43.4832 97.9766C40.3097 97.2797 37.4295 95.3849 35.9669 93.0319L35.8203 92.796L36.479 92.4216C41.582 89.243 49.2343 90.9662 52.5373 96.0409L52.6821 96.2635L52.4604 96.4095C51.7023 96.9088 50.8863 97.3142 50.0305 97.6167ZM36.5713 92.9833C38.0027 95.1101 40.6663 96.8113 43.5978 97.4551C46.4474 98.1207 49.4445 97.637 51.9401 96.1089C48.7091 91.4353 41.5508 89.885 36.7569 92.8776L36.5713 92.9833Z"
      fill="#313038" />
    <path
      d="M53.1582 128.686C52.4101 128.982 51.5955 129.069 50.8017 128.937C50.008 128.805 49.2651 128.46 48.6529 127.938C47.9362 127.311 47.3929 126.511 47.0754 125.614C46.7578 124.716 46.6767 123.752 46.8398 122.815C46.9913 122.008 47.3633 121.259 47.9145 120.65C48.4656 120.042 49.1745 119.598 49.9625 119.367L65.9293 113.722C66.687 113.408 67.5168 113.309 68.3271 113.437C69.1373 113.564 69.8967 113.913 70.5214 114.445C71.2376 115.071 71.7805 115.872 72.0976 116.769C72.4148 117.666 72.4955 118.63 72.3321 119.568C72.0168 121.215 70.9044 122.429 69.2088 123.01L53.2417 128.655C53.2139 128.666 53.186 128.676 53.1582 128.686ZM50.0618 119.898C49.3805 120.108 48.7694 120.5 48.2941 121.032C47.8188 121.563 47.4974 122.214 47.3642 122.915C47.2173 123.759 47.2904 124.628 47.5765 125.436C47.8626 126.245 48.352 126.966 48.9977 127.53C49.5512 127.999 50.2237 128.305 50.9407 128.415C51.6578 128.525 52.3913 128.435 53.06 128.153L69.0346 122.505C69.7322 122.304 70.3605 121.914 70.8499 121.378C71.3394 120.842 71.6709 120.18 71.8077 119.467C71.955 118.623 71.8822 117.754 71.5965 116.946C71.3108 116.138 70.8216 115.417 70.1763 114.852C69.622 114.384 68.9492 114.077 68.2319 113.966C67.5146 113.856 66.7806 113.945 66.1108 114.224L50.1351 119.873C50.1106 119.881 50.086 119.889 50.0618 119.898Z"
      fill="#313038" />
    <path
      d="M126.622 94.5051L121.588 96.2847C121.254 96.4027 120.888 96.3833 120.568 96.2308C120.249 96.0782 120.003 95.805 119.885 95.4713C119.767 95.1375 119.786 94.7706 119.939 94.4512C120.091 94.1318 120.365 93.886 120.698 93.768L125.732 91.9884C126.065 91.8705 126.432 91.8899 126.752 92.0424C127.071 92.195 127.317 92.4682 127.435 92.8019C127.553 93.1356 127.534 93.5026 127.381 93.822C127.228 94.1414 126.955 94.3871 126.622 94.5051Z"
      fill="#2575FC" />
    <path
      d="M128.047 98.5325L123.014 100.312C122.68 100.43 122.313 100.411 121.994 100.258C121.674 100.106 121.429 99.8324 121.311 99.4986C121.193 99.1649 121.212 98.798 121.365 98.4785C121.517 98.1591 121.79 97.9134 122.124 97.7954L127.158 96.0158C127.491 95.8978 127.858 95.9172 128.178 96.0698C128.497 96.2223 128.743 96.4955 128.861 96.8292C128.979 97.163 128.959 97.5299 128.807 97.8493C128.654 98.1687 128.381 98.4145 128.047 98.5325Z"
      fill="#2575FC" />
    <path
      d="M129.469 102.56L124.436 104.339C124.271 104.398 124.095 104.423 123.92 104.414C123.745 104.405 123.574 104.361 123.416 104.285C123.258 104.21 123.116 104.104 122.999 103.974C122.881 103.843 122.791 103.691 122.733 103.526C122.674 103.361 122.649 103.186 122.658 103.011C122.667 102.836 122.711 102.664 122.787 102.506C122.862 102.348 122.968 102.206 123.098 102.089C123.229 101.972 123.381 101.881 123.546 101.823L128.579 100.043C128.745 99.9847 128.92 99.9594 129.095 99.9687C129.27 99.9779 129.441 100.022 129.6 100.097C129.758 100.173 129.899 100.279 130.017 100.409C130.134 100.539 130.224 100.691 130.283 100.857C130.341 101.022 130.366 101.197 130.357 101.372C130.348 101.547 130.304 101.718 130.229 101.877C130.153 102.035 130.047 102.177 129.917 102.294C129.787 102.411 129.634 102.501 129.469 102.56Z"
      fill="#2575FC" />
    <path
      d="M135.43 91.3918L130.397 93.1714C130.232 93.2299 130.056 93.2552 129.881 93.2459C129.706 93.2366 129.535 93.193 129.377 93.1175C129.219 93.0419 129.077 92.936 128.96 92.8057C128.842 92.6754 128.752 92.5233 128.694 92.358C128.635 92.1928 128.61 92.0176 128.619 91.8426C128.628 91.6676 128.672 91.4961 128.747 91.3379C128.823 91.1797 128.929 91.038 129.059 90.9208C129.19 90.8036 129.342 90.7132 129.507 90.6548L134.54 88.8752C134.874 88.7572 135.241 88.7766 135.56 88.9291C135.88 89.0817 136.126 89.3549 136.244 89.6886C136.362 90.0223 136.342 90.3893 136.19 90.7087C136.037 91.0281 135.764 91.2739 135.43 91.3918Z"
      fill="#2575FC" />
    <path
      d="M136.856 95.4172L131.823 97.1968C131.657 97.2553 131.482 97.2806 131.307 97.2713C131.132 97.262 130.961 97.2184 130.802 97.1429C130.644 97.0673 130.503 96.9614 130.385 96.8311C130.268 96.7008 130.178 96.5486 130.119 96.3834C130.061 96.2181 130.036 96.043 130.045 95.868C130.054 95.6929 130.098 95.5215 130.173 95.3633C130.249 95.2051 130.355 95.0634 130.485 94.9462C130.615 94.829 130.767 94.7386 130.933 94.6801L135.966 92.9005C136.131 92.8421 136.306 92.8168 136.482 92.8261C136.657 92.8353 136.828 92.879 136.986 92.9545C137.144 93.0301 137.286 93.136 137.403 93.2663C137.521 93.3966 137.611 93.5487 137.669 93.714C137.728 93.8792 137.753 94.0544 137.744 94.2294C137.735 94.4044 137.691 94.5759 137.615 94.7341C137.54 94.8922 137.434 95.034 137.304 95.1512C137.173 95.2684 137.021 95.3588 136.856 95.4172Z"
      fill="#2575FC" />
    <path
      d="M138.278 99.4446L133.244 101.224C132.911 101.342 132.544 101.323 132.224 101.17C131.905 101.018 131.659 100.744 131.541 100.411C131.423 100.077 131.443 99.7101 131.595 99.3906C131.748 99.0712 132.021 98.8255 132.355 98.7075L137.388 96.9279C137.553 96.8695 137.728 96.8442 137.903 96.8534C138.078 96.8627 138.25 96.9063 138.408 96.9819C138.566 97.0574 138.708 97.1634 138.825 97.2937C138.942 97.424 139.033 97.5761 139.091 97.7413C139.15 97.9066 139.175 98.0817 139.166 98.2568C139.156 98.4318 139.113 98.6033 139.037 98.7614C138.962 98.9196 138.856 99.0613 138.725 99.1786C138.595 99.2958 138.443 99.3862 138.278 99.4446Z"
      fill="#2575FC" />
    <path d="M140.559 69.4597L35.1602 106.725L35.3381 107.228L140.737 69.9631L140.559 69.4597Z" fill="#313038" />
    <path
      d="M147.161 114.564L58.0704 146.063C55.8676 146.839 53.447 146.71 51.3396 145.703C49.2321 144.697 47.61 142.895 46.829 140.694L31.5245 97.4073C30.7485 95.2045 30.8779 92.7839 31.8844 90.6765C32.8909 88.569 34.6922 86.9469 36.8932 86.1659L125.984 54.6671C128.187 53.8911 130.607 54.0205 132.715 55.027C134.822 56.0335 136.444 57.8348 137.225 60.0358L152.53 103.323C153.306 105.526 153.176 107.946 152.17 110.054C151.163 112.161 149.362 113.783 147.161 114.564ZM37.0712 86.6692C35.0036 87.4029 33.3114 88.9267 32.366 90.9064C31.4205 92.8862 31.2989 95.1601 32.0278 97.2293L47.3324 140.516C48.066 142.584 49.5898 144.276 51.5696 145.222C53.5493 146.167 55.8232 146.289 57.8924 145.56L146.983 114.061C149.051 113.327 150.743 111.803 151.688 109.824C152.634 107.844 152.755 105.57 152.026 103.501L136.722 60.2138C135.988 58.1462 134.464 56.454 132.485 55.5085C130.505 54.563 128.231 54.4414 126.162 55.1704L37.0712 86.6692Z"
      fill="#313038" />
    <path
      d="M264.923 167.999H0.358974C0.263768 167.999 0.172462 167.961 0.105141 167.894C0.0378201 167.827 0 167.735 0 167.64C0 167.545 0.0378201 167.454 0.105141 167.386C0.172462 167.319 0.263768 167.281 0.358974 167.281H264.923C265.018 167.281 265.11 167.319 265.177 167.386C265.244 167.454 265.282 167.545 265.282 167.64C265.282 167.735 265.244 167.827 265.177 167.894C265.11 167.961 265.018 167.999 264.923 167.999Z"
      fill="#CBCBCB" />
  </g>
  <defs>
    <clipPath id="clip0_4864_74993">
      <rect width="265.282" height="168" fill="white" />
    </clipPath>
  </defs>
</svg>